<svg width="32" height="32" viewBox="0 0 32 32" fill="none" xmlns="http://www.w3.org/2000/svg">
  <path d="M16 5C9.373 5 4 10.373 4 17C4 23.627 9.373 29 16 29C22.627 29 28 23.627 28 17C28 10.373 22.627 5 16 5ZM16 7.5C17.657 7.5 19 8.843 19 10.5C19 12.157 17.657 13.5 16 13.5C14.343 13.5 13 12.157 13 10.5C13 8.843 14.343 7.5 16 7.5ZM10 14C11.657 14 13 15.343 13 17C13 18.657 11.657 20 10 20C8.343 20 7 18.657 7 17C7 15.343 8.343 14 10 14ZM22 14C23.657 14 25 15.343 25 17C25 18.657 23.657 20 22 20C20.343 20 19 18.657 19 17C19 15.343 20.343 14 22 14ZM16 15C17.933 15 19.715 15.587 21.137 16.588C20.423 17.966 18.883 19 17 19C15.117 19 13.577 17.966 12.863 16.588C14.285 15.587 16.067 15 16 15ZM10 16.5C10.828 16.5 11.5 17.172 11.5 18C11.5 18.828 10.828 19.5 10 19.5C9.172 19.5 8.5 18.828 8.5 18C8.5 17.172 9.172 16.5 10 16.5ZM22 16.5C22.828 16.5 23.5 17.172 23.5 18C23.5 18.828 22.828 19.5 22 19.5C21.172 19.5 20.5 18.828 20.5 18C20.5 17.172 21.172 16.5 22 16.5Z" fill="black"/>
</svg> 